<svg width="320" height="161" viewBox="0 0 320 161" fill="none" xmlns="http://www.w3.org/2000/svg">
<path d="M0 103.241V104.328H7.13871V157.402H0V158.489H49.1948V140.952H48.1835C47.5136 143.953 46.567 146.5 45.3539 148.595C44.1383 150.69 42.7675 152.397 41.2389 153.717C39.7129 155.036 38.0859 155.98 36.3504 156.549C34.62 157.118 32.9 157.402 31.193 157.402H18.3899V104.328H25.5285V103.241H0Z" fill="#1E1E1E"/>
<path d="M60.5225 109.061L62.5373 125.589H63.9366L65.9541 109.061C66.1584 108.026 66.2644 106.94 66.2644 105.802C66.2644 104.302 65.9386 103.293 65.292 102.776C64.6453 102.258 63.9599 102 63.2383 102C62.514 102 61.826 102.258 61.1794 102.776C60.5328 103.293 60.2095 104.302 60.2095 105.802C60.2095 106.94 60.3155 108.026 60.5225 109.061Z" fill="#1E1E1E"/>
<path d="M73.0141 125.201V126.287H77.2068L92.6481 160.584H93.2689L107.003 126.287H110.572V125.201H99.7092V126.287H105.684L97.2262 147.78L87.6821 126.287H93.2689V125.201H73.0141Z" fill="#1E1E1E"/>
<path d="M131.524 158.489C129.506 158.489 127.928 158.01 126.79 157.053C125.65 156.096 124.809 154.842 124.266 153.29C123.725 151.738 123.386 149.953 123.257 147.936C123.128 145.918 123.063 143.875 123.063 141.806C123.063 139.737 123.128 137.706 123.257 135.715C123.386 133.723 123.725 131.951 124.266 130.399C124.809 128.848 125.65 127.593 126.79 126.636C127.928 125.679 129.506 125.201 131.524 125.201C133.538 125.201 135.119 125.679 136.254 126.636C137.395 127.593 138.233 128.848 138.776 130.399C139.322 131.951 139.655 133.723 139.785 135.715C139.914 137.706 139.981 139.737 139.981 141.806C139.981 143.875 139.914 145.918 139.785 147.936C139.655 149.953 139.322 151.738 138.776 153.29C138.233 154.842 137.395 156.096 136.254 157.053C135.119 158.01 133.538 158.489 131.524 158.489ZM131.524 124.114C128.834 124.114 126.335 124.593 124.033 125.55C121.734 126.507 119.729 127.787 118.02 129.391C116.315 130.994 114.98 132.87 114.026 135.016C113.069 137.163 112.588 139.426 112.588 141.806C112.588 144.237 113.069 146.526 114.026 148.673C114.98 150.82 116.315 152.695 118.02 154.298C119.729 155.902 121.734 157.169 124.033 158.101C126.335 159.032 128.834 159.497 131.524 159.497C134.213 159.497 136.707 159.032 139.009 158.101C141.313 157.169 143.318 155.902 145.025 154.298C146.729 152.695 148.062 150.82 149.021 148.673C149.978 146.526 150.457 144.237 150.457 141.806C150.457 139.426 149.978 137.163 149.021 135.016C148.062 132.87 146.729 130.994 145.025 129.391C143.318 127.787 141.313 126.507 139.009 125.55C136.707 124.593 134.213 124.114 131.524 124.114Z" fill="#1E1E1E"/>
<path d="M160.308 108.518C160.308 110.018 160.854 111.311 161.941 112.397C163.024 113.484 164.318 114.027 165.82 114.027C167.32 114.027 168.614 113.484 169.7 112.397C170.784 111.311 171.329 110.018 171.329 108.518C171.329 107.017 170.784 105.724 169.7 104.638C168.614 103.552 167.32 103.008 165.82 103.008C164.318 103.008 163.024 103.552 161.941 104.638C160.854 105.724 160.308 107.017 160.308 108.518ZM155.888 125.2V126.287H161.084V157.402H155.888V158.488H175.752V157.402H170.554V125.2H155.888Z" fill="#1E1E1E"/>
<path d="M180.95 147.237V158.489H182.034C182.192 158.075 182.357 157.79 182.541 157.635C182.719 157.48 183.019 157.402 183.433 157.402C183.899 157.402 184.545 157.506 185.373 157.713C186.201 157.92 187.116 158.165 188.128 158.45C189.137 158.734 190.181 158.98 191.27 159.187C192.357 159.394 193.365 159.497 194.296 159.497C196.001 159.497 197.659 159.239 199.263 158.721C200.866 158.204 202.273 157.467 203.491 156.51C204.704 155.553 205.69 154.389 206.44 153.018C207.188 151.647 207.565 150.108 207.565 148.401C207.565 145.918 206.841 143.875 205.393 142.271C203.944 140.668 201.821 139.374 199.03 138.392L192.434 136.141C191.141 135.676 190.106 135.197 189.33 134.706C188.555 134.214 187.983 133.723 187.623 133.232C187.261 132.74 187.028 132.262 186.925 131.796C186.819 131.331 186.77 130.917 186.77 130.555C186.77 128.796 187.481 127.464 188.904 126.558C190.326 125.653 191.891 125.201 193.598 125.201C195.202 125.201 196.547 125.446 197.633 125.938C198.717 126.429 199.638 127.102 200.388 127.955C201.138 128.809 201.784 129.805 202.328 130.943C202.871 132.081 203.401 133.27 203.918 134.512H204.924V125.045H203.841C203.737 125.304 203.608 125.537 203.453 125.744C203.297 125.951 202.935 126.054 202.366 126.054C202.056 126.054 201.627 125.951 201.083 125.744C200.543 125.537 199.92 125.317 199.224 125.084C198.523 124.851 197.747 124.632 196.896 124.425C196.04 124.218 195.124 124.114 194.141 124.114C192.279 124.114 190.559 124.412 188.981 125.007C187.401 125.601 186.059 126.403 184.944 127.412C183.834 128.421 182.968 129.598 182.347 130.943C181.726 132.288 181.416 133.71 181.416 135.21C181.416 136.607 181.646 137.81 182.114 138.818C182.58 139.827 183.162 140.694 183.86 141.418C184.556 142.142 185.321 142.724 186.149 143.164C186.977 143.603 187.753 143.953 188.477 144.211L194.762 146.539C196.159 147.056 197.258 147.561 198.06 148.052C198.862 148.544 199.469 149.048 199.881 149.565C200.297 150.083 200.566 150.587 200.696 151.078C200.825 151.57 200.892 152.048 200.892 152.514C200.892 154.014 200.62 155.165 200.075 155.967C199.532 156.769 198.885 157.363 198.135 157.751C197.387 158.139 196.624 158.359 195.848 158.411C195.072 158.463 194.449 158.489 193.986 158.489C192.176 158.489 190.65 158.165 189.405 157.519C188.167 156.872 187.106 156.031 186.227 154.997C185.347 153.962 184.584 152.772 183.938 151.428C183.291 150.083 182.657 148.686 182.034 147.237H180.95Z" fill="#1E1E1E"/>
<path d="M217.808 108.518C217.808 110.018 218.352 111.311 219.438 112.397C220.524 113.484 221.818 114.027 223.318 114.027C224.818 114.027 226.111 113.484 227.197 112.397C228.284 111.311 228.827 110.018 228.827 108.518C228.827 107.017 228.284 105.724 227.197 104.638C226.111 103.552 224.818 103.008 223.318 103.008C221.818 103.008 220.524 103.552 219.438 104.638C218.352 105.724 217.808 107.017 217.808 108.518ZM213.386 125.2V126.287H218.584V157.402H213.386V158.488H233.247V157.402H228.051V125.2H213.386Z" fill="#1E1E1E"/>
<path d="M238.291 157.402V158.489H257.77V157.402H252.881V140.797C252.881 138.418 253.14 136.348 253.657 134.59C254.175 132.831 254.86 131.357 255.714 130.167C256.564 128.977 257.56 128.085 258.701 127.49C259.839 126.895 261.029 126.597 262.27 126.597C263.768 126.597 264.96 127.102 265.837 128.111C266.719 129.119 267.159 130.71 267.159 132.883V157.402H262.345V158.489H281.824V157.402H276.625V135.521C276.625 132.107 275.681 129.417 273.79 127.451C271.905 125.485 269.254 124.502 265.837 124.502C263.509 124.502 261.569 124.852 260.017 125.55C258.466 126.248 257.201 127.063 256.218 127.994C255.232 128.925 254.485 129.869 253.968 130.826C253.45 131.783 253.088 132.495 252.881 132.96H252.726V125.201H238.291V126.287H243.415V157.402H238.291Z" fill="#1E1E1E"/>
<path d="M309.525 137.926H297.11C297.161 136.581 297.252 135.171 297.381 133.697C297.51 132.223 297.808 130.852 298.273 129.585C298.739 128.317 299.45 127.27 300.405 126.442C301.364 125.614 302.722 125.201 304.481 125.201C305.723 125.201 306.693 125.485 307.388 126.054C308.089 126.623 308.594 127.322 308.901 128.149C309.214 128.977 309.395 129.805 309.447 130.632C309.499 131.46 309.525 132.158 309.525 132.727V137.926ZM297.11 139.012H320C320 136.374 319.534 134.111 318.601 132.223C317.672 130.335 316.482 128.796 315.034 127.606C313.585 126.416 311.956 125.537 310.145 124.968C308.335 124.399 306.524 124.114 304.714 124.114C302.177 124.114 299.812 124.619 297.614 125.627C295.415 126.636 293.502 127.955 291.869 129.585C290.243 131.214 288.962 133.089 288.031 135.21C287.1 137.331 286.634 139.504 286.634 141.728C286.634 144.522 287.126 147.018 288.109 149.216C289.092 151.415 290.447 153.277 292.182 154.803C293.915 156.329 295.946 157.493 298.273 158.295C300.601 159.096 303.11 159.497 305.798 159.497C308.076 159.497 310.016 159.174 311.617 158.527C313.223 157.881 314.568 157.079 315.655 156.122C316.741 155.165 317.595 154.13 318.213 153.018C318.836 151.906 319.276 150.858 319.534 149.876L318.448 149.488C318.396 149.953 318.148 150.677 317.711 151.66C317.271 152.643 316.596 153.639 315.691 154.648C314.786 155.656 313.622 156.549 312.199 157.325C310.777 158.101 309.031 158.489 306.962 158.489C304.634 158.489 302.823 157.997 301.53 157.014C300.237 156.031 299.256 154.777 298.584 153.251C297.909 151.725 297.498 150.018 297.342 148.13C297.187 146.242 297.11 144.366 297.11 142.504V139.012Z" fill="#1E1E1E"/>
<path fill-rule="evenodd" clip-rule="evenodd" d="M159.942 66.7522C157.164 74.0955 150.486 79.0875 142.728 79.8871C133.859 80.8003 125.356 75.8017 121.764 67.667C116.486 55.7102 123.555 41.9451 136.237 39.148C146.292 36.9317 156.129 42.3926 159.93 51.8568C159.978 51.9764 160.026 51.9757 160.073 51.8551C162.67 45.1601 168.424 40.4116 175.53 39.0345C175.598 39.0213 175.612 38.9867 175.573 38.9308C173.276 35.617 172.34 29.9767 178.352 29.957C178.429 29.9558 178.473 29.9175 178.485 29.8418C179.398 24.2854 167.245 26.7074 164.824 27.2602C162.288 27.8378 159.417 28.6703 156.998 29.1787C147.537 31.1663 136.179 30.5658 127.688 25.5277C119.879 20.896 118.679 13.3059 125.96 7.23948C133.802 0.70575 143.848 -0.822793 153.716 0.37174C161.122 1.26896 168.118 3.45729 174.702 6.93673C180.185 9.83257 185.942 13.9048 187.357 20.353C188.247 24.4072 186.639 27.9645 183.457 30.4457C183.435 30.4631 183.421 30.4901 183.421 30.5187C183.421 30.5529 183.44 30.5844 183.47 30.6003C186.544 32.2095 184.851 36.9103 183.382 38.944C183.378 38.9487 183.375 38.954 183.373 38.9594C183.354 39.0032 183.374 39.0547 183.417 39.0734C183.422 39.0759 183.428 39.0777 183.434 39.0789C194.81 41.4383 202.04 52.556 199.486 63.9436C197.663 72.0684 190.81 78.5297 182.458 79.7539C172.757 81.1738 163.65 75.8642 160.059 66.7522C160.049 66.728 160.026 66.7121 160 66.7121C159.974 66.7121 159.951 66.728 159.942 66.7522ZM162.044 54.644C163.117 54.5354 163.996 54.8776 164.001 56.1396C164.006 58.1141 164.005 60.0885 163.996 62.0629C163.989 63.6112 163.484 63.9008 162.02 63.914C161.958 63.914 161.933 63.9441 161.944 64.0045C161.974 64.1702 162.013 64.3314 162.063 64.4882C163.547 69.2795 166.724 73.1346 171.16 75.4068C181.652 80.7822 194.358 74.6533 196.926 63.3101C198.815 54.9714 194.562 46.4419 186.75 42.9044C176.752 38.378 164.93 43.8142 161.966 54.5502C161.946 54.6193 161.972 54.6506 162.044 54.644ZM192.217 48.9593C199.508 57.8015 195.636 71.2375 184.719 74.9609C176.56 77.7432 167.578 73.6052 164.282 65.6531C164.102 65.2187 164.029 64.8678 164.063 64.6001C164.179 63.7182 165.403 63.2229 166.089 63.7511C166.703 64.2266 167.125 65.6646 167.578 66.4067C171.028 72.0717 177.875 74.6763 184.165 72.3744C189.856 70.293 193.675 64.6856 193.301 58.5633C192.994 53.5301 189.986 49.0004 185.412 46.8565C178.205 43.4802 169.893 46.6772 166.717 53.9826C165.85 55.9784 163.501 54.7987 164.208 53.1451C169.136 41.6325 184.145 39.1694 192.217 48.9593ZM178.309 68.0126C174.437 65.8884 170.431 62.3821 169.957 57.6912C169.621 54.361 171.54 50.8844 175.038 50.2838C176.702 49.9987 178.162 50.5125 179.418 51.8255C179.462 51.8704 179.507 51.8716 179.554 51.8288C181.246 50.2657 183.008 49.7046 185.236 50.6606C188.295 51.9736 189.586 55.5671 188.889 58.6521C187.895 63.0485 184.004 66.3392 180.117 68.3071C179.395 68.6724 179.036 68.4124 178.309 68.0126ZM172.966 54.9254C170.88 59.4057 176.106 63.8004 179.408 65.6136C179.46 65.6421 179.511 65.6416 179.561 65.612C181.674 64.4207 183.725 62.856 185.116 60.8404C186.406 58.9697 186.983 56.4161 185.703 54.3857C185.045 53.3392 183.762 52.6054 182.541 52.923C181.614 53.1665 181.121 53.9546 180.756 54.8168C180.618 55.1371 180.488 55.3576 180.364 55.4782C179.686 56.1413 178.519 55.8698 178.217 54.9566C177.205 51.8995 174.141 52.4014 172.966 54.9254ZM124.7 50.965C119.119 61.5447 125.363 74.7092 137.153 77.0226C146.557 78.8654 155.407 73.2432 158.036 64.1213C158.081 63.9655 158.023 63.8947 157.862 63.909C156.539 64.0324 156.055 63.4023 156.059 62.1699C156.064 60.1889 156.064 58.2046 156.059 56.217C156.055 55.0636 156.745 54.4449 157.948 54.6424C157.952 54.643 157.956 54.6433 157.96 54.6433C158.003 54.6433 158.037 54.6085 158.037 54.566C158.037 54.5619 158.037 54.5576 158.036 54.5535C158.001 54.3352 157.949 54.1229 157.878 53.9168C156.213 48.995 153.128 45.4102 148.623 43.1627C139.87 38.7959 129.224 42.3861 124.7 50.965ZM161.329 57.3144C161.329 57.2901 161.309 57.27 161.284 57.27H158.698C158.673 57.27 158.653 57.2901 158.653 57.3144V61.2205C158.653 61.2449 158.673 61.2649 158.698 61.2649H161.284C161.309 61.2649 161.329 61.2449 161.329 61.2205V57.3144ZM123.685 16.2939C123.89 21.3616 130.896 24.728 134.955 25.9242C141.858 27.9579 149.349 28.0862 156.381 26.6235C156.98 26.4996 158.045 26.2385 159.576 25.8403C163.364 24.8547 167.124 23.9514 171.038 23.675C174.813 23.4085 180.617 23.8461 181.132 28.7707C181.136 28.8033 181.163 28.8281 181.196 28.8281C181.209 28.8281 181.222 28.8242 181.233 28.8168C184.189 26.844 185.573 24.0682 184.686 20.5077C183.831 17.0738 181.499 14.5975 178.715 12.5491C171.305 7.09469 161.737 3.88294 152.648 2.91712C144.256 2.02368 135.59 3.261 128.67 8.4225C126.283 10.2028 123.551 13.041 123.685 16.2939ZM177.952 32.6027C177.281 32.6175 176.358 32.8446 176.409 33.7216C176.49 35.1234 176.966 36.4063 177.837 37.5701C180.617 41.287 183.349 34.0342 182.333 33.0042C181.703 32.3625 178.906 32.5797 177.952 32.6027Z" fill="#1E1E1E"/>
</svg>
